<?xml version="1.0" encoding="UTF-8" standalone="no"?>
<!-- Created with Inkscape (http://www.inkscape.org/) -->

<svg
   width="22.308294mm"
   height="24.600914mm"
   viewBox="0 0 22.308295 24.600914"
   version="1.1"
   id="svg848"
   inkscape:version="1.1.1 (3bf5ae0d25, 2021-09-20)"
   sodipodi:docname="bookings.svg"
   xmlns:inkscape="http://www.inkscape.org/namespaces/inkscape"
   xmlns:sodipodi="http://sodipodi.sourceforge.net/DTD/sodipodi-0.dtd"
   xmlns="http://www.w3.org/2000/svg"
   xmlns:svg="http://www.w3.org/2000/svg">
  <sodipodi:namedview
     id="namedview850"
     pagecolor="#ffffff"
     bordercolor="#666666"
     borderopacity="1.0"
     inkscape:pageshadow="2"
     inkscape:pageopacity="0.0"
     inkscape:pagecheckerboard="0"
     inkscape:document-units="mm"
     showgrid="false"
     inkscape:zoom="0.76969697"
     inkscape:cx="298.8189"
     inkscape:cy="-25.334646"
     inkscape:window-width="1708"
     inkscape:window-height="881"
     inkscape:window-x="2391"
     inkscape:window-y="-9"
     inkscape:window-maximized="1"
     inkscape:current-layer="layer1" />
  <defs
     id="defs845">
    <pattern
       id="EMFhbasepattern"
       patternUnits="userSpaceOnUse"
       width="6"
       height="6"
       x="0"
       y="0" />
    <pattern
       id="EMFhbasepattern-1"
       patternUnits="userSpaceOnUse"
       width="6"
       height="6"
       x="0"
       y="0" />
  </defs>
  <g
     inkscape:label="Capa 1"
     inkscape:groupmode="layer"
     id="layer1"
     transform="translate(-25.631718,-155.15651)">
    <path
       style="fill:#7a9284;fill-opacity:1;fill-rule:nonzero;stroke:none;stroke-width:0.264583"
       d="m 47.719525,161.96419 c -0.17639,-2.11666 -1.41111,-3.43958 -3.35139,-4.14514 -0.97014,-0.26458 -1.67569,-0.52916 -1.67569,-1.67569 0,-0.52917 -0.44098,-0.97014 -1.05834,-0.97014 -0.44097,-0.0882 -1.05833,0.17639 -1.05833,0.70556 0,2.02847 -1.41111,1.67569 -2.64583,1.67569 -1.05834,0 -2.11667,0 -3.175,0 -1.05834,0.0882 -1.85209,0 -1.94028,-1.32292 0,-0.70555 -0.52917,-1.05833 -1.14653,-1.05833 -0.61736,0 -1.05833,0.35278 -1.05833,0.97014 0.0882,1.23472 -0.705557,1.41111 -1.587502,1.67569 -2.116666,0.70556 -3.351389,2.38125 -3.351389,4.67431 -0.08819,2.02847 0,4.05694 0,6.17361 0,2.02847 -0.08819,4.14514 0,6.26181 0.08819,2.73402 1.852084,4.6743 4.497921,4.76249 4.32152,0.0882 8.64305,0.0882 13.05277,0 2.38125,-0.0882 4.23334,-1.76388 4.40973,-4.23333 0.44097,-4.49791 0.35277,-8.99583 0.0882,-13.49375 z m -19.667361,0.44098 c 0,-1.23473 0.705556,-2.11667 2.028471,-2.20487 0.52917,-0.0882 0.44097,0.52917 0.52917,0.97014 0,0.70556 0.35278,1.23473 1.14653,1.23473 0.70555,0 1.14652,-0.44098 1.14652,-1.14653 0,-1.14653 0.61737,-1.32292 1.5875,-1.23472 1.23473,0 2.55764,0 3.88056,0 1.05833,0 2.29305,-0.17639 2.20486,1.5875 0,0.52916 0.52917,0.79375 1.14653,0.79375 0.61736,-0.0882 0.88194,-0.44098 1.05833,-1.05834 0.0882,-0.44097 -0.17639,-1.14653 0.61736,-1.14653 0.61736,0 1.05834,0.35278 1.41111,0.88195 0.61737,0.97014 0.70556,2.11667 0.52917,3.26319 -0.17639,0.79375 -0.88194,0.61736 -1.41111,0.61736 -2.38125,0 -4.8507,0 -7.23195,0 -2.55763,0 -5.02708,0.0882 -7.584717,0 -1.940278,-0.0882 -1.058334,-1.67569 -1.058334,-2.55763 z m 17.374311,6.43819 c -0.0882,1.85208 0,3.70417 -0.0882,5.46806 -0.0882,2.20485 -0.97014,2.9986 -3.08681,2.9986 -3.70416,0 -7.49652,0 -11.20069,0 -2.204861,0 -2.998611,-0.88194 -3.086805,-2.9986 0,-1.85209 0.08819,-3.70417 0,-5.46806 0,-1.14653 0.352778,-1.41111 1.411111,-1.41111 2.469444,0 4.938894,0 7.408334,0 2.38125,0 4.67431,0 7.05555,0 1.05834,-0.0882 1.58751,0.26458 1.58751,1.41111 z"
       id="path1009" />
    <path
       style="fill:#7d9586;fill-opacity:1;fill-rule:nonzero;stroke:none;stroke-width:0.264583"
       d="m 42.780635,171.04822 c 0,0.61736 -2.46944,3.35139 -3.175,3.61597 -1.23472,0.35278 -1.85208,-0.52916 -2.55764,-1.23472 -0.52916,-0.44097 -0.79375,-1.05833 -0.26458,-1.67569 0.35278,-0.61736 0.97014,-0.61736 1.49931,-0.26459 1.23472,0.79375 1.4993,-0.52916 2.11666,-0.97014 0.52917,-0.35277 1.05834,-0.79375 1.76389,-0.44097 0.35278,0.26459 0.52917,0.52917 0.61736,0.97014 z"
       id="path1011" />
  </g>
</svg>
