<?xml version="1.0" encoding="UTF-8" standalone="no"?>
<!-- Created with Inkscape (http://www.inkscape.org/) -->

<svg
   width="21.391462mm"
   height="23.755581mm"
   viewBox="0 0 21.391463 23.755581"
   version="1.1"
   id="svg848"
   inkscape:version="1.1.1 (3bf5ae0d25, 2021-09-20)"
   sodipodi:docname="dashboard.svg"
   xmlns:inkscape="http://www.inkscape.org/namespaces/inkscape"
   xmlns:sodipodi="http://sodipodi.sourceforge.net/DTD/sodipodi-0.dtd"
   xmlns="http://www.w3.org/2000/svg"
   xmlns:svg="http://www.w3.org/2000/svg">
  <sodipodi:namedview
     id="namedview850"
     pagecolor="#ffffff"
     bordercolor="#666666"
     borderopacity="1.0"
     inkscape:pageshadow="2"
     inkscape:pageopacity="0.0"
     inkscape:pagecheckerboard="0"
     inkscape:document-units="mm"
     showgrid="false"
     inkscape:zoom="0.76969697"
     inkscape:cx="28.582677"
     inkscape:cy="92.893701"
     inkscape:window-width="1708"
     inkscape:window-height="881"
     inkscape:window-x="2391"
     inkscape:window-y="-9"
     inkscape:window-maximized="1"
     inkscape:current-layer="layer1" />
  <defs
     id="defs845">
    <pattern
       id="EMFhbasepattern"
       patternUnits="userSpaceOnUse"
       width="6"
       height="6"
       x="0"
       y="0" />
    <pattern
       id="EMFhbasepattern-1"
       patternUnits="userSpaceOnUse"
       width="6"
       height="6"
       x="0"
       y="0" />
    <pattern
       id="EMFhbasepattern-2"
       patternUnits="userSpaceOnUse"
       width="6"
       height="6"
       x="0"
       y="0" />
  </defs>
  <g
     inkscape:label="Capa 1"
     inkscape:groupmode="layer"
     id="layer1"
     transform="translate(-97.092237,-124.02872)">
    <path
       style="fill:#000000;fill-opacity:1;fill-rule:nonzero;stroke:none;stroke-width:0.264583"
       d="m 109.17895,131.02059 c 0,-1.6757 0,-3.43959 0,-5.20348 0,-1.05833 0.44098,-1.67569 1.5875,-1.67569 0.17639,0 0.44098,0 0.61737,0 5.55625,-0.44097 7.40833,1.76389 7.05555,6.96736 -0.0882,1.76389 0,3.61597 0,5.37986 0,1.14653 -0.52917,1.6757 -1.5875,1.6757 -2.02847,0 -4.05694,0 -6.08542,0 -1.14652,0 -1.67569,-0.61736 -1.5875,-1.6757 0,-1.76389 0,-3.61597 0,-5.46805 z m 2.38125,-4.58611 c 0,3.26319 0,6.35 0,9.525 1.23473,0 2.38125,0 3.43959,0.0882 0.97014,0 1.41111,-0.35278 1.32291,-1.41111 0,-1.32292 0,-2.73403 0,-4.14514 0,-3.79236 -0.79375,-4.49792 -4.7625,-4.05694 z"
       id="path1031" />
    <path
       style="fill:#000000;fill-opacity:1;fill-rule:nonzero;stroke:none;stroke-width:0.264583"
       d="m 106.53312,140.72198 c 0,1.76388 -0.0882,3.52777 0,5.29166 0,1.05834 -0.52917,1.6757 -1.5875,1.6757 -1.32292,0 -2.73403,0 -3.96875,-0.17639 -2.116666,-0.35278 -3.615971,-2.02847 -3.615971,-4.23334 -0.08819,-2.64583 0,-5.37986 -0.08819,-8.02569 0,-1.23472 0.617362,-1.5875 1.675695,-1.5875 1.940276,0.0882 3.968746,0.0882 5.997226,0 1.05833,0 1.5875,0.52917 1.5875,1.5875 0,1.85208 0,3.61597 0,5.46806 z m -2.11667,4.58611 c 0,-2.11667 0,-4.05695 0,-6.08542 0,-3.70417 0,-3.70417 -3.79236,-3.43958 -0.970136,0.0882 -1.234719,0.44097 -1.234719,1.32291 0,1.41111 0.08819,2.91042 0,4.32153 -0.352778,3.79236 1.675699,4.58611 5.027079,3.88056 z"
       id="path1033" />
    <path
       style="fill:#000000;fill-opacity:1;fill-rule:nonzero;stroke:none;stroke-width:0.264583"
       d="m 113.76507,140.81017 c 0.79375,0 1.5875,0 2.29305,0 2.29306,0 2.55764,0.35278 2.38125,2.64583 -0.26458,2.02848 -1.67569,3.61598 -3.79236,4.05695 -4.85069,0.97014 -6.52639,-0.61736 -5.46806,-5.46806 0.17639,-0.44097 0.88195,-1.05833 1.41112,-1.14653 1.05833,-0.17638 2.11666,-0.0882 3.175,-0.0882 0,0 0,0 0,0 z m -2.29306,4.49792 c 3.35139,0.52916 4.49792,-0.0882 4.49792,-2.29306 -1.49931,0 -2.99861,0 -4.49792,0 0,0.44097 -0.0882,0.70556 -0.0882,1.05833 0,0.35278 0,0.79375 0.0882,1.23473 z"
       id="path1035" />
    <path
       style="fill:#000000;fill-opacity:1;fill-rule:nonzero;stroke:none;stroke-width:0.264583"
       d="m 101.85882,131.02059 c -0.52917,0 -1.14653,0 -1.76389,0 -2.822226,0 -3.527781,-0.97014 -2.645837,-3.70417 0.617361,-1.67569 1.763889,-2.73403 3.527777,-3.08681 4.8507,-0.79375 6.4382,0.70556 5.46806,5.55625 -0.0882,0.44098 -0.88195,1.05834 -1.41111,1.14653 -0.97014,0.17639 -2.11667,0 -3.175,0 0,0.0882 0,0.0882 0,0.0882 z m -2.29306,-2.11667 c 1.32292,0 2.64583,0 3.96875,-0.0882 0.26458,0 0.79375,-0.44098 0.79375,-0.79375 0.0882,-0.52917 0,-1.32292 -0.26458,-1.5875 -1.49931,-1.14653 -4.233337,0.26458 -4.49792,2.46944 z"
       id="path1037" />
  </g>
</svg>
