<?xml version="1.0" encoding="UTF-8" standalone="no"?>
<!-- Created with Inkscape (http://www.inkscape.org/) -->

<svg
   width="12.365767mm"
   height="24.648575mm"
   viewBox="0 0 12.365767 24.648575"
   version="1.1"
   id="svg848"
   inkscape:version="1.1.1 (3bf5ae0d25, 2021-09-20)"
   sodipodi:docname="bookings.svg"
   xmlns:inkscape="http://www.inkscape.org/namespaces/inkscape"
   xmlns:sodipodi="http://sodipodi.sourceforge.net/DTD/sodipodi-0.dtd"
   xmlns="http://www.w3.org/2000/svg"
   xmlns:svg="http://www.w3.org/2000/svg">
  <sodipodi:namedview
     id="namedview850"
     pagecolor="#ffffff"
     bordercolor="#666666"
     borderopacity="1.0"
     inkscape:pageshadow="2"
     inkscape:pageopacity="0.0"
     inkscape:pagecheckerboard="0"
     inkscape:document-units="mm"
     showgrid="false"
     inkscape:zoom="0.76969697"
     inkscape:cx="35.07874"
     inkscape:cy="263.09055"
     inkscape:window-width="1708"
     inkscape:window-height="881"
     inkscape:window-x="2391"
     inkscape:window-y="-9"
     inkscape:window-maximized="1"
     inkscape:current-layer="layer1" />
  <defs
     id="defs845">
    <pattern
       id="EMFhbasepattern"
       patternUnits="userSpaceOnUse"
       width="6"
       height="6"
       x="0"
       y="0" />
  </defs>
  <g
     inkscape:label="Capa 1"
     inkscape:groupmode="layer"
     id="layer1"
     transform="translate(-95.567115,-78.769465)">
    <path
       style="fill:#7a9284;fill-opacity:1;fill-rule:nonzero;stroke:none;stroke-width:0.264583"
       d="m 105.44129,101.02314 c -0.35277,-0.0882 -0.70555,-0.0882 -1.05833,0 -1.14653,0.0882 -1.41111,-0.35278 -1.41111,-1.411108 0,-0.881945 0.35278,-1.146528 1.14653,-1.146528 1.05833,0 2.46944,0.352778 2.46944,-1.234722 -0.0882,-1.5875 -1.41111,-1.058333 -2.38125,-1.146528 -0.35278,-0.08819 -1.05833,0.08819 -1.05833,-0.352778 -0.17639,-1.411111 -0.0882,-2.822222 -0.0882,-4.233333 -0.0882,-0.881944 0.88195,-0.79375 1.32292,-1.058333 2.55764,-1.322917 3.96875,-3.96875 3.43958,-6.526389 -0.52916,-2.822223 -2.82222,-4.938889 -5.55625,-5.115278 -2.734023,-0.264583 -5.291662,1.322917 -6.261801,3.880555 -0.970139,2.557639 -0.352778,5.997223 2.116666,6.967362 2.734025,1.146527 2.469445,3.086805 2.381255,5.203472 0,0.617361 0,1.322917 0,1.940278 0,1.675694 0.0882,3.26319 0,4.93889 0,0.79375 0.26458,1.4993 1.05833,1.5875 1.32292,0.17639 2.73403,0.0882 4.05694,0 0.70556,0 0.97014,-0.52917 0.97014,-1.23472 -0.0882,-0.70556 -0.52917,-1.05834 -1.14653,-1.05834 z M 98.032961,84.88356 c 0.08819,-2.116667 1.675694,-3.704167 3.792359,-3.615973 2.02847,0 3.70417,1.675695 3.61597,3.615973 0,2.028472 -1.76388,3.704166 -3.70416,3.704166 -2.028475,0 -3.704169,-1.675694 -3.704169,-3.704166 z"
       id="path912" />
  </g>
</svg>
